<?xml version="1.0" standalone="no"?>
<!DOCTYPE svg PUBLIC "-//W3C//DTD SVG 20010904//EN"
 "http://www.w3.org/TR/2001/REC-SVG-20010904/DTD/svg10.dtd">
<svg version="1.0" xmlns="http://www.w3.org/2000/svg"
 width="4pt" height="4pt" viewBox="0 0 4 4"
 preserveAspectRatio="xMidYMid meet">

<g>
  <rect x="0" y="0" width="1" height="1" fill="#fffe95"></rect>
  <rect x="0" y="1" width="1" height="1" fill="#fffe95"></rect>
  <rect x="0" y="2" width="1" height="1" fill="#fffe95"></rect>
  <rect x="0" y="3" width="1" height="1" fill="#fffe95"></rect>
  
  <rect x="1" y="0" width="1" height="1" fill="#fffe95"></rect>
  <rect x="1" y="1" width="1" height="1" fill="#ffd600"></rect>
  <rect x="1" y="2" width="1" height="1" fill="#fffe95"></rect>
  <rect x="1" y="3" width="1" height="1" fill="#ffd600"></rect>

  <rect x="2" y="0" width="1" height="1" fill="#ff8d00"></rect>
  <rect x="2" y="1" width="1" height="1" fill="#ff8d00"></rect>
  <rect x="2" y="2" width="1" height="1" fill="#ffffff"></rect>
  <rect x="2" y="3" width="1" height="1" fill="#ffffff"></rect>

  <rect x="3" y="0" width="1" height="1" fill="#ff8d00"></rect>
  <rect x="3" y="1" width="1" height="1" fill="#ff8d00"></rect>
  <rect x="3" y="2" width="1" height="1" fill="#ff8d00"></rect>
  <rect x="3" y="3" width="1" height="1" fill="#ffffff"></rect>
</g>
</svg>
